<?xml version="1.0" encoding="utf-8"?><svg viewBox="0 0 24 24" xmlns="http://www.w3.org/2000/svg" xmlns:xlink="http://www.w3.org/1999/xlink"><style>:root>svg{display:none}:root>svg:target{display:block}</style><svg viewBox="0 0 24 24" id="card-heart" xmlns="http://www.w3.org/2000/svg"><path d="M16.44 3.1c-1.81 0-3.43.88-4.44 2.23A5.549 5.549 0 007.56 3.1C4.49 3.1 2 5.6 2 8.69c0 1.19.19 2.29.52 3.31 1.58 5 6.45 7.99 8.86 8.81.34.12.9.12 1.24 0 2.41-.82 7.28-3.81 8.86-8.81.33-1.02.52-2.12.52-3.31 0-3.09-2.49-5.59-5.56-5.59z"/></svg><svg viewBox="0 0 10 10" id="circle" xmlns="http://www.w3.org/2000/svg"><circle cx="5" cy="5" r="5"/></svg><svg viewBox="0 0 7 13" id="gallery-button-lines" xmlns="http://www.w3.org/2000/svg"><path d="M.7 0a.69.69 0 01.495.212.734.734 0 01.205.51v11.556a.734.734 0 01-.205.51A.69.69 0 01.7 13a.69.69 0 01-.495-.211.734.734 0 01-.205-.511V.722C0 .531.074.347.205.212A.69.69 0 01.7 0zm5.6 0a.69.69 0 01.495.212.732.732 0 01.205.51v11.556a.734.734 0 01-.205.51A.69.69 0 016.3 13a.69.69 0 01-.495-.211.734.734 0 01-.205-.511V.722c0-.191.074-.375.205-.51A.69.69 0 016.3 0z"/></svg><svg viewBox="0 0 24 24" id="location" xmlns="http://www.w3.org/2000/svg"><path d="M20.62 8.45c-1.05-4.62-5.08-6.7-8.62-6.7h-.01c-3.53 0-7.57 2.07-8.62 6.69-1.17 5.16 1.99 9.53 4.85 12.28A5.436 5.436 0 0012 22.25c1.36 0 2.72-.51 3.77-1.53 2.86-2.75 6.02-7.11 4.85-12.27zM12 13.46a3.15 3.15 0 110-6.3 3.15 3.15 0 010 6.3z"/></svg><svg viewBox="0 0 22 22" id="notification-icon" xmlns="http://www.w3.org/2000/svg"><path d="M18.507 12.888l-1.036-1.723c-.229-.376-.43-1.1-.43-1.54V7.911c0-3.328-2.705-6.032-6.023-6.032-3.327.01-6.032 2.704-6.032 6.032v1.705c0 .44-.201 1.164-.421 1.54l-1.036 1.723c-.394.67-.486 1.43-.238 2.09.247.67.806 1.201 1.54 1.44.99.33 1.989.568 3.006.742.101.018.202.027.303.046l.403.055c.238.036.477.064.724.082a18.504 18.504 0 003.474 0c.211-.018.422-.037.624-.064.165-.018.33-.037.495-.064a19.308 19.308 0 003.337-.797A2.429 2.429 0 0018.7 14.96a2.392 2.392 0 00-.193-2.072zm-6.82-3.721a.696.696 0 11-1.393 0V6.325a.696.696 0 111.393 0v2.842zm1.907 9.176A2.763 2.763 0 0111 20.167c-.724 0-1.44-.294-1.943-.816a2.531 2.531 0 01-.642-1.018c.12.019.238.028.367.046a18.148 18.148 0 002.236.147c.523 0 1.045-.028 1.559-.073.192-.019.385-.028.568-.055.147-.019.293-.037.45-.055z"/></svg><svg viewBox="0 0 24 24" id="settings" xmlns="http://www.w3.org/2000/svg"><path d="M21.3 7.58h-5.58c-.39 0-.7-.31-.7-.7 0-.39.31-.7.7-.7h5.58c.39 0 .7.31.7.7 0 .39-.31.7-.7.7zm-14.88 0H2.7c-.39 0-.7-.31-.7-.7 0-.39.31-.7.7-.7h3.72c.39 0 .7.31.7.7 0 .39-.32.7-.7.7z"/><path d="M10.14 10.83a3.95 3.95 0 100-7.9 3.95 3.95 0 000 7.9zm11.16 6.98h-3.72c-.39 0-.7-.31-.7-.7 0-.39.31-.7.7-.7h3.72c.39 0 .7.31.7.7 0 .39-.31.7-.7.7zm-13.02 0H2.7c-.39 0-.7-.31-.7-.7 0-.39.31-.7.7-.7h5.58c.39 0 .7.31.7.7 0 .39-.32.7-.7.7z"/><path d="M13.86 21.07a3.95 3.95 0 100-7.9 3.95 3.95 0 000 7.9z"/></svg></svg>